<svg xmlns="http://www.w3.org/2000/svg" width="40.004" height="34.543" viewBox="0 0 40.004 34.543">
  <g id="Group_2493" data-name="Group 2493" transform="translate(76.166 48.242)">
    <path id="Path_2511" data-name="Path 2511" d="M-36.161,25.7a4.536,4.536,0,0,1-.678,1.289,2.925,2.925,0,0,1-1.561.9q-6.883,1.531-13.767,3.056c-.275.061-.372.167-.363.459.024.78.014,1.562.006,2.343-.008.806-.31,1.1-1.117,1.1q-2.519,0-5.038,0c-.809,0-1.112-.294-1.12-1.1s-.015-1.588.006-2.382a.343.343,0,0,0-.322-.414q-5.135-1.134-10.268-2.28c-1.192-.265-2.385-.522-3.575-.793a2.738,2.738,0,0,1-2.2-2.748c-.01-1.848,0-3.7,0-5.545a2.714,2.714,0,0,1,2.884-2.925c.065,0,.13,0,.2,0q16.929,0,33.857,0a2.919,2.919,0,0,1,2.561,1.133,6.3,6.3,0,0,1,.5,1.113Zm-20.015-7.21H-73.163c-.9,0-1.185.288-1.185,1.19q0,2.655,0,5.311c0,.735.231,1.018.927,1.174l13.041,2.909c.562.125.562.126.579-.432.022-.7.295-1.054.92-1.06q2.714-.026,5.428,0a.835.835,0,0,1,.913.858,1.738,1.738,0,0,1,.013.428c-.042.308.092.33.348.271,1.4-.322,2.813-.632,4.219-.946l9.086-2.032c.616-.138.888-.411.893-1q.023-2.851,0-5.7c-.006-.649-.331-.936-.974-.964-.117-.005-.234,0-.352,0Zm1.826,12.717c0-.519-.008-1.039,0-1.558,0-.2-.055-.268-.262-.266q-1.558.015-3.117,0c-.222,0-.252.09-.251.277.006,1.039.008,2.078,0,3.117,0,.2.057.265.263.263,1.026-.01,2.052-.014,3.078,0,.258,0,.3-.092.292-.315C-54.36,32.224-54.35,31.718-54.35,31.211Z" transform="translate(0 -58.55)" fill="#040404"/>
    <path id="Path_2512" data-name="Path 2512" d="M-47.722,162.259q-8.084,0-16.168,0a2.708,2.708,0,0,1-2.636-1.532,2.949,2.949,0,0,1-.267-1.363q0-5.721,0-11.442c0-.831.422-1.219,1.133-1.073a.768.768,0,0,1,.621.57,2.065,2.065,0,0,1,.063.618q0,5.6,0,11.208c0,.922.283,1.2,1.215,1.2h32.1c.948,0,1.223-.277,1.223-1.233q0-5.585,0-11.169a2.66,2.66,0,0,1,.046-.541.843.843,0,0,1,.9-.694.838.838,0,0,1,.853.793,2.736,2.736,0,0,1,.018.311q0,5.741,0,11.481a2.672,2.672,0,0,1-1.531,2.593,3.139,3.139,0,0,1-1.443.27Q-39.658,162.256-47.722,162.259Z" transform="translate(-8.455 -175.96)" fill="#010101"/>
    <path id="Path_2513" data-name="Path 2513" d="M68.274-45.177a5.775,5.775,0,0,1,0,.7.847.847,0,0,1-.918.769.842.842,0,0,1-.857-.793c-.027-.3-.008-.6-.017-.9-.022-.7-.338-1.03-1.037-1.031q-4.43-.011-8.861,0a.909.909,0,0,0-1.019,1.009c-.013.325.01.653-.026.974a.828.828,0,0,1-.827.736.8.8,0,0,1-.892-.6,3.646,3.646,0,0,1,.462-2.844,2.659,2.659,0,0,1,2.26-1.093q2.732-.005,5.465,0h3.24A2.719,2.719,0,0,1,68.274-45.177Z" transform="translate(-117.181 0)" fill="#010101"/>
    <path id="Path_2514" data-name="Path 2514" d="M113.276,148.491c0,.506-.01,1.013,0,1.519.006.223-.033.319-.292.314-1.026-.016-2.052-.012-3.078,0-.206,0-.264-.06-.263-.263.009-1.039.007-2.078,0-3.117,0-.187.029-.279.251-.277q1.558.017,3.117,0c.208,0,.267.065.262.266C113.268,147.452,113.276,147.972,113.276,148.491Z" transform="translate(-167.626 -175.83)" fill="#fbfbfb"/>
  </g>
</svg>
