<svg xmlns="http://www.w3.org/2000/svg" width="92.553" height="117.127" viewBox="0 0 92.553 117.127"><defs><style>.a{fill:#01acea}</style></defs><path class="a" d="M0 117.129V20.492h11.19V10.199h11.323v-10.2h70.04v96.63H81.44v10.3H70.111v10.2zm65.852-92.45H4.177v88.4h61.679zm15.442 67.775h7.167V4.039H26.883v6.138h54.41zM15.443 20.535h54.634v82.259h7.058V14.329h-61.7z"/><path class="a" d="M57.495 76.976H12.437V31.952h45.058zm-40.963-41.04v28.67c3.719-2.851 7.13-5.4 10.455-8.051a2.551 2.551 0 0 1 3.394-.272c3.515 2.09 7.148 3.983 10.757 5.967 3.936-3.662 7.716-7.161 11.464-10.694a2.524 2.524 0 0 0 .905-1.451c.068-4.691.041-9.384.041-14.169zm36.886 37 37.016-16.541c-3.457 3.2-6.66 6.006-9.666 9.009-1.443 1.442-2.537 1.786-4.374.592-2.8-1.819-5.856-3.231-8.734-4.935a2.4 2.4 0 0 0-3.189.226c-3 2.428-6.055 4.805-9.2 7.046-1.69 1.2-2.355 2.54-1.62 4.6zM57.57 82.501v3.7H12.453v-3.7zM57.435 95.531H12.497v-3.794h44.938zM34.496 104.854h-21.7v-3.836h21.7z"/><path class="a" d="M47.295 48.369a6.139 6.139 0 1 1-12.275-.26 6.139 6.139 0 0 1 12.275.26zm-3.238-.132c-1.287-.95-2.133-2.038-2.75-1.919-.829.158-1.48 1.246-2.208 1.934.732.683 1.391 1.766 2.219 1.917.621.112 1.459-.976 2.738-1.932z"/></svg>